HIERARCHY
ROOT Root
{
  OFFSET 0.0 0.0 0.0
  CHANNELS 6 Xposition Yposition Zposition Zrotation Yrotation Xrotation
  JOINT Hips
  {
    OFFSET 0.0 100.0 0.0
    CHANNELS 6 Xposition Yposition Zposition Zrotation Yrotation Xrotation
    JOINT Spine1
    {
      OFFSET 5.003913 -0.037094 -0.013727
      CHANNELS 3 Zrotation Yrotation Xrotation
      JOINT Spine2
      {
        OFFSET 7.125363 -1e-06 0.0
        CHANNELS 3 Zrotation Yrotation Xrotation
        JOINT Chest
        {
          OFFSET 7.594027 1e-06 0.0
          CHANNELS 3 Zrotation Yrotation Xrotation
          JOINT Neck1
          {
            OFFSET 26.313086 -0.460272 -0.181672
            CHANNELS 3 Zrotation Yrotation Xrotation
            JOINT Neck2
            {
              OFFSET 8.045911 0.0 0.0
              CHANNELS 3 Zrotation Yrotation Xrotation
              JOINT Head
              {
                OFFSET 6.432774 0.0 0.0
                CHANNELS 3 Zrotation Yrotation Xrotation
                JOINT HeadEnd
                {
                  OFFSET 16.169773 0.06451 0.00362
                  CHANNELS 3 Zrotation Yrotation Xrotation
                }
                JOINT Jaw
                {
                  OFFSET 0.108741 3.12938 0.002639
                  CHANNELS 3 Zrotation Yrotation Xrotation
                }
                JOINT LeftEye
                {
                  OFFSET 4.45173 8.166359 3.206392
                  CHANNELS 3 Zrotation Yrotation Xrotation
                }
                JOINT RightEye
                {
                  OFFSET 4.436895 8.135758 -3.222429
                  CHANNELS 3 Zrotation Yrotation Xrotation
                }
              }
            }
          }
          JOINT LeftShoulder
          {
            OFFSET 23.218927 5.195579 1.621656
            CHANNELS 3 Zrotation Yrotation Xrotation
            JOINT LeftArm
            {
              OFFSET 15.902118 2e-06 -2e-06
              CHANNELS 3 Zrotation Yrotation Xrotation
              JOINT LeftForeArm
              {
                OFFSET 28.739307 0.0 -1e-06
                CHANNELS 3 Zrotation Yrotation Xrotation
                JOINT LeftHand
                {
                  OFFSET 27.093981 -4e-06 0.0
                  CHANNELS 3 Zrotation Yrotation Xrotation
                  JOINT LeftHandThumb1
                  {
                    OFFSET 2.276781 3.380274 0.83384
                    CHANNELS 3 Zrotation Yrotation Xrotation
                    JOINT LeftHandThumb2
                    {
                      OFFSET 4.705309 -1e-06 -1e-06
                      CHANNELS 3 Zrotation Yrotation Xrotation
                      JOINT LeftHandThumb3
                      {
                        OFFSET 2.798515 0.0 3e-06
                        CHANNELS 3 Zrotation Yrotation Xrotation
                        JOINT LeftHandThumbEnd
                        {
                          OFFSET 3.180793 4e-06 -4e-06
                          CHANNELS 3 Zrotation Yrotation Xrotation
                        }
                      }
                    }
                  }
                  JOINT LeftHandIndex1
                  {
                    OFFSET 3.247786 2.352677 0.137192
                    CHANNELS 3 Zrotation Yrotation Xrotation
                    JOINT LeftHandIndex2
                    {
                      OFFSET 6.367095 1e-06 0.0
                      CHANNELS 3 Zrotation Yrotation Xrotation
                      JOINT LeftHandIndex3
                      {
                        OFFSET 3.662364 0.0 0.0
                        CHANNELS 3 Zrotation Yrotation Xrotation
                        JOINT LeftHandIndex4
                        {
                          OFFSET 2.329242 4e-06 -4e-06
                          CHANNELS 3 Zrotation Yrotation Xrotation
                          JOINT LeftHandIndexEnd
                          {
                            OFFSET 2.767823 1e-06 0.0
                            CHANNELS 3 Zrotation Yrotation Xrotation
                          }
                        }
                      }
                    }
                  }
                  JOINT LeftHandMiddle1
                  {
                    OFFSET 3.163612 0.945023 -0.406112
                    CHANNELS 3 Zrotation Yrotation Xrotation
                    JOINT LeftHandMiddle2
                    {
                      OFFSET 6.276789 3e-06 0.0
                      CHANNELS 3 Zrotation Yrotation Xrotation
                      JOINT LeftHandMiddle3
                      {
                        OFFSET 4.35652 -1e-06 4e-06
                        CHANNELS 3 Zrotation Yrotation Xrotation
                        JOINT LeftHandMiddle4
                        {
                          OFFSET 2.996877 0.0 8e-06
                          CHANNELS 3 Zrotation Yrotation Xrotation
                          JOINT LeftHandMiddleEnd
                          {
                            OFFSET 2.323256 3e-06 -4e-06
                            CHANNELS 3 Zrotation Yrotation Xrotation
                          }
                        }
                      }
                    }
                  }
                  JOINT LeftHandRing1
                  {
                    OFFSET 2.882606 -0.309162 0.107445
                    CHANNELS 3 Zrotation Yrotation Xrotation
                    JOINT LeftHandRing2
                    {
                      OFFSET 6.033198 0.0 4e-06
                      CHANNELS 3 Zrotation Yrotation Xrotation
                      JOINT LeftHandRing3
                      {
                        OFFSET 4.350578 3e-06 0.0
                        CHANNELS 3 Zrotation Yrotation Xrotation
                        JOINT LeftHandRing4
                        {
                          OFFSET 2.651321 2e-06 -7e-06
                          CHANNELS 3 Zrotation Yrotation Xrotation
                          JOINT LeftHandRingEnd
                          {
                            OFFSET 1.937663 1e-06 -4e-06
                            CHANNELS 3 Zrotation Yrotation Xrotation
                          }
                        }
                      }
                    }
                  }
                  JOINT LeftHandPinky1
                  {
                    OFFSET 2.865315 -1.525436 0.575687
                    CHANNELS 3 Zrotation Yrotation Xrotation
                    JOINT LeftHandPinky2
                    {
                      OFFSET 5.54936 1e-06 -8e-06
                      CHANNELS 3 Zrotation Yrotation Xrotation
                      JOINT LeftHandPinky3
                      {
                        OFFSET 3.070974 0.0 -4e-06
                        CHANNELS 3 Zrotation Yrotation Xrotation
                        JOINT LeftHandPinky4
                        {
                          OFFSET 1.549672 1e-06 0.0
                          CHANNELS 3 Zrotation Yrotation Xrotation
                          JOINT LeftHandPinkyEnd
                          {
                            OFFSET 1.952123 0.0 0.0
                            CHANNELS 3 Zrotation Yrotation Xrotation
                          }
                        }
                      }
                    }
                  }
                }
              }
            }
          }
          JOINT RightShoulder
          {
            OFFSET 23.161716 5.296122 -1.380114
            CHANNELS 3 Zrotation Yrotation Xrotation
            JOINT RightArm
            {
              OFFSET -16.027195 -2e-06 1.1e-05
              CHANNELS 3 Zrotation Yrotation Xrotation
              JOINT RightForeArm
              {
                OFFSET -28.736639 4e-06 2e-06
                CHANNELS 3 Zrotation Yrotation Xrotation
                JOINT RightHand
                {
                  OFFSET -27.133619 6e-06 0.0
                  CHANNELS 3 Zrotation Yrotation Xrotation
                  JOINT RightHandThumb1
                  {
                    OFFSET -2.274328 -3.351035 -0.83067
                    CHANNELS 3 Zrotation Yrotation Xrotation
                    JOINT RightHandThumb2
                    {
                      OFFSET -4.703594 -3e-06 2e-06
                      CHANNELS 3 Zrotation Yrotation Xrotation
                      JOINT RightHandThumb3
                      {
                        OFFSET -2.794935 -4e-06 -3e-06
                        CHANNELS 3 Zrotation Yrotation Xrotation
                        JOINT RightHandThumbEnd
                        {
                          OFFSET -3.183852 4e-06 1e-06
                          CHANNELS 3 Zrotation Yrotation Xrotation
                        }
                      }
                    }
                  }
                  JOINT RightHandIndex1
                  {
                    OFFSET -3.253496 -2.33755 -0.127667
                    CHANNELS 3 Zrotation Yrotation Xrotation
                    JOINT RightHandIndex2
                    {
                      OFFSET -6.344434 0.0 0.0
                      CHANNELS 3 Zrotation Yrotation Xrotation
                      JOINT RightHandIndex3
                      {
                        OFFSET -3.654871 0.0 -8e-06
                        CHANNELS 3 Zrotation Yrotation Xrotation
                        JOINT RightHandIndex4
                        {
                          OFFSET -2.327586 -1e-06 0.0
                          CHANNELS 3 Zrotation Yrotation Xrotation
                          JOINT RightHandIndexEnd
                          {
                            OFFSET -2.770001 3e-06 8e-06
                            CHANNELS 3 Zrotation Yrotation Xrotation
                          }
                        }
                      }
                    }
                  }
                  JOINT RightHandMiddle1
                  {
                    OFFSET -3.168223 -0.944764 0.411762
                    CHANNELS 3 Zrotation Yrotation Xrotation
                    JOINT RightHandMiddle2
                    {
                      OFFSET -6.266691 -1e-06 -4e-06
                      CHANNELS 3 Zrotation Yrotation Xrotation
                      JOINT RightHandMiddle3
                      {
                        OFFSET -4.348901 0.0 0.0
                        CHANNELS 3 Zrotation Yrotation Xrotation
                        JOINT RightHandMiddle4
                        {
                          OFFSET -3.00024 2e-06 -4e-06
                          CHANNELS 3 Zrotation Yrotation Xrotation
                          JOINT RightHandMiddleEnd
                          {
                            OFFSET -2.321477 -4e-06 -4e-06
                            CHANNELS 3 Zrotation Yrotation Xrotation
                          }
                        }
                      }
                    }
                  }
                  JOINT RightHandRing1
                  {
                    OFFSET -2.885654 0.293261 -0.119232
                    CHANNELS 3 Zrotation Yrotation Xrotation
                    JOINT RightHandRing2
                    {
                      OFFSET -6.032835 -1e-06 -4e-06
                      CHANNELS 3 Zrotation Yrotation Xrotation
                      JOINT RightHandRing3
                      {
                        OFFSET -4.33881 0.0 -4e-06
                        CHANNELS 3 Zrotation Yrotation Xrotation
                        JOINT RightHandRing4
                        {
                          OFFSET -2.654903 -4e-06 -4e-06
                          CHANNELS 3 Zrotation Yrotation Xrotation
                          JOINT RightHandRingEnd
                          {
                            OFFSET -1.935122 0.0 4e-06
                            CHANNELS 3 Zrotation Yrotation Xrotation
                          }
                        }
                      }
                    }
                  }
                  JOINT RightHandPinky1
                  {
                    OFFSET -2.866241 1.503904 -0.60527
                    CHANNELS 3 Zrotation Yrotation Xrotation
                    JOINT RightHandPinky2
                    {
                      OFFSET -5.553177 -2e-06 0.0
                      CHANNELS 3 Zrotation Yrotation Xrotation
                      JOINT RightHandPinky3
                      {
                        OFFSET -3.062664 -1e-06 -4e-06
                        CHANNELS 3 Zrotation Yrotation Xrotation
                        JOINT RightHandPinky4
                        {
                          OFFSET -1.546529 2e-06 4e-06
                          CHANNELS 3 Zrotation Yrotation Xrotation
                          JOINT RightHandPinkyEnd
                          {
                            OFFSET -1.952341 0.0 -4e-06
                            CHANNELS 3 Zrotation Yrotation Xrotation
                          }
                        }
                      }
                    }
                  }
                }
              }
            }
          }
        }
      }
    }
    JOINT LeftLeg
    {
      OFFSET -8.443107 2.567604 10.043214
      CHANNELS 3 Zrotation Yrotation Xrotation
      JOINT LeftShin
      {
        OFFSET 43.229198 1e-06 -1e-06
        CHANNELS 3 Zrotation Yrotation Xrotation
        JOINT LeftFoot
        {
          OFFSET 42.298611 1e-06 1e-06
          CHANNELS 3 Zrotation Yrotation Xrotation
          JOINT LeftToeBase
          {
            OFFSET 14.165858 1e-06 0.0
            CHANNELS 3 Zrotation Yrotation Xrotation
            JOINT LeftToeEnd
            {
              OFFSET 6.7141 -0.234461 0.0
              CHANNELS 3 Zrotation Yrotation Xrotation
            }
          }
        }
      }
    }
    JOINT RightLeg
    {
      OFFSET -8.303923 2.592729 -10.047278
      CHANNELS 3 Zrotation Yrotation Xrotation
      JOINT RightShin
      {
        OFFSET -43.369682 0.0 1e-06
        CHANNELS 3 Zrotation Yrotation Xrotation
        JOINT RightFoot
        {
          OFFSET -42.260784 4e-06 2e-06
          CHANNELS 3 Zrotation Yrotation Xrotation
          JOINT RightToeBase
          {
            OFFSET -14.222245 -2e-06 -1e-06
            CHANNELS 3 Zrotation Yrotation Xrotation
            JOINT RightToeEnd
            {
              OFFSET -6.660062 0.232574 -2e-06
              CHANNELS 3 Zrotation Yrotation Xrotation
            }
          }
        }
      }
    }
  }
}
MOTION
Frames: 4
Frame Time: 0.03333333333333333
0.0 0.0 0.0 0.0 -0.0 0.0 -24.280163 91.681358 -182.554077 90.806694 -20.835793 94.717415 20.794132 0.103859 -0.179731 0.738403 -0.11419 -0.249951 39.190907 0.502556 -2.779078 -10.852091 -2.456392 0.96869 -2.985362 0.139066 -2.188977 -53.963261 0.103512 -4.579722 4e-06 0.0 -0.0 0.076092 0.060794 -0.02421 0.146845 -0.066175 -0.02917 0.113156 0.18475 -0.015132 81.413811 -73.665184 -73.309067 43.642036 -17.551682 -16.135635 25.095322 -0.822889 0.386187 5.849144 4.245883 -13.462233 17.636629 -26.322737 52.411194 -19.466665 -14.3956 29.410393 -2e-06 -8.774822 0.0 16.713991 -18.241959 5.800944 -0.609776 -1.795653 -3.889329 -4.807087 -11.046809 -2.937851 7e-06 -20.976015 -0.0 -5.019966 -25.033548 -4.03188 5e-06 -1e-06 -1e-06 -10.634533 -5.686968 -3.565586 10.573274 -17.922951 -3.113898 5e-06 -13.821206 1e-06 -0.501771 -31.181498 -4.027014 -11.773973 -61.236908 8.200449 -13.982712 -7.150195 -2.875042 13.772731 -8.401493 -3.218243 0.347737 -34.211544 0.771657 -0.963029 -17.733366 2.621021 0.0 -1e-06 -0.0 -17.346413 -20.095211 -4.201781 21.757555 -1.638378 3.866426 3e-06 -6.338822 -1e-06 -1.697587 -22.591736 -6.194002 -1e-06 -8e-06 -2e-06 -90.280891 -73.252647 -80.649719 48.042835 -24.04814 -38.798096 18.891527 0.091114 0.699945 6.339614 6.054522 -21.78628 22.182114 -20.375898 49.933323 -16.701815 -16.743526 28.476534 -4e-06 -12.690598 -0.0 16.207212 -17.162342 2.613873 -0.10592 -1.513856 -4.275883 -5.039039 -5.612871 -2.953558 5e-06 -11.020523 -2e-06 -6.111296 -15.895334 -3.840471 1e-06 -0.0 -1e-06 -10.283367 -5.680286 -4.34184 11.028292 -11.302406 -2.372634 -1.384266 -14.23858 -6.320123 -0.625434 -26.924191 -3.827601 -4.321533 -50.494591 -2.848327 -13.708522 -7.363473 -3.720941 18.141146 -14.052739 -3.242674 8e-06 -18.787268 -3e-06 -0.429713 -8.456044 2.555504 0.0 3e-06 -0.0 -15.92353 -20.094481 -5.473588 30.419205 -7.190827 1.735924 4e-06 -8.162927 -3e-06 -1.861901 -22.861467 -6.16794 1e-06 -3e-06 -2e-06 124.076698 4.633613 -4.556153 49.026165 0.092837 -0.131445 -83.536072 -12.028052 0.800682 -5.409268 1.506457 2.078228 -0.999999 -0.0 0.0 -55.117477 -18.250946 -11.876342 68.558167 0.155901 -0.16839 -82.011665 -6.304386 -0.334464 -8.588123 0.750189 1.668366 -1.000004 -0.0 -1e-06 
0.0 0.0 0.0 0.0 -0.0 0.0 -25.029703 91.756592 -185.208908 91.168297 -20.01536 93.649384 20.650331 0.074985 -0.109144 0.698709 -0.068333 0.051404 39.111153 0.220798 -2.558535 -11.753897 -3.253015 0.979982 -2.976962 0.035708 -2.455089 -53.762348 0.393844 -5.182902 5e-06 -0.0 0.0 0.071248 0.057528 -0.013928 0.179756 -0.074823 -0.019066 0.127141 0.186951 -0.001497 86.06369 -74.233574 -78.059395 42.36235 -17.306982 -16.721867 26.155878 -0.586301 0.46256 6.218848 3.437982 -12.471203 17.636629 -26.322731 52.41119 -19.46666 -14.395596 29.410389 -1e-06 -8.774822 -5e-06 16.788139 -18.370371 5.874634 -0.609776 -1.795654 -3.889327 -4.807089 -11.046811 -2.93785 3e-06 -20.976017 -0.0 -5.019969 -25.03356 -4.03188 4e-06 -2e-06 -0.0 -10.634533 -5.68697 -3.565585 10.573274 -17.922951 -3.113902 4e-06 -13.821211 0.0 -0.501777 -31.181505 -4.027015 -11.8935 -61.405872 8.405731 -13.982714 -7.150198 -2.875041 13.77273 -8.401493 -3.21824 0.347735 -34.211555 0.771654 -0.963028 -17.73337 2.62102 0.0 -1e-06 0.0 -17.346416 -20.095217 -4.201782 21.757557 -1.638374 3.866426 2e-06 -6.338823 -1e-06 -1.697587 -22.591745 -6.194006 -1e-06 -7e-06 -2e-06 -90.921867 -71.928673 -80.045609 46.078144 -21.298864 -35.881672 19.071089 -0.609913 0.48432 5.08607 4.83136 -18.502211 22.182117 -20.375898 49.933323 -16.701813 -16.743528 28.47653 -2e-06 -12.690603 -0.0 15.928833 -17.140202 2.586699 -0.105919 -1.513856 -4.275878 -5.039041 -5.612872 -2.953559 4e-06 -11.020523 -1e-06 -6.111298 -15.895332 -3.840471 1e-06 -0.0 -1e-06 -10.283371 -5.680289 -4.341835 11.028296 -11.302405 -2.372632 -1.384269 -14.238581 -6.320121 -0.625438 -26.924187 -3.827601 -4.227551 -49.828217 -2.984399 -13.708527 -7.363475 -3.720936 18.141148 -14.052739 -3.242672 6e-06 -18.78727 -1e-06 -0.429713 -8.456039 2.555504 1e-06 -0.0 -1e-06 -15.923536 -20.094482 -5.473584 30.41921 -7.190826 1.735927 2e-06 -8.162925 -0.0 -1.861905 -22.861467 -6.167942 1e-06 -4e-06 -1e-06 123.979576 3.661021 -5.051857 47.352852 0.113979 -0.152785 -80.869354 -11.481887 0.149369 -5.475842 1.498518 2.072049 -0.999999 0.0 0.0 -51.355694 -19.221016 -10.471917 71.278496 0.042102 0.059076 -82.25573 -5.069187 -0.591296 -8.890558 0.807517 1.703043 -1.000001 1e-06 -0.0 
0.0 0.0 0.0 0.0 -0.0 0.0 -25.884146 91.806236 -187.842209 91.50592 -18.752691 92.753593 20.48011 0.053787 -0.084226 0.558831 -0.059059 0.337154 38.85482 -0.013993 -2.326266 -12.185045 -3.854682 1.133853 -2.937093 -0.137024 -2.666645 -53.509403 0.572073 -5.778972 6e-06 -0.0 -0.0 0.077548 0.055922 -0.019537 0.21915 -0.066647 -0.024113 0.148769 0.176133 -0.006792 90.370949 -75.148994 -82.475708 41.369007 -17.301977 -16.425718 27.517048 -0.524209 0.505643 6.944367 2.783641 -11.043738 17.636627 -26.322737 52.411213 -19.466665 -14.395602 29.410395 -1e-06 -8.774822 0.0 16.840475 -18.511557 5.914693 -0.609777 -1.795654 -3.889326 -4.80709 -11.046812 -2.937853 2e-06 -20.976019 -0.0 -5.019971 -25.03356 -4.031882 7e-06 1e-06 -1e-06 -10.634536 -5.686971 -3.565587 10.573272 -17.922955 -3.113903 2e-06 -13.821211 -1e-06 -0.501779 -31.181505 -4.027019 -11.876648 -61.463966 8.385801 -13.982716 -7.150199 -2.87504 13.772729 -8.401493 -3.21824 0.347732 -34.211552 0.771655 -0.963033 -17.733372 2.621021 0.0 1e-06 0.0 -17.346422 -20.095221 -4.201782 21.757561 -1.638373 3.866428 1e-06 -6.338826 0.0 -1.697592 -22.591749 -6.194005 -2e-06 -7e-06 -1e-06 -91.505119 -71.228973 -79.403198 43.754864 -18.537621 -30.915428 21.398861 -1.52602 0.239971 4.479444 2.324087 -11.255366 22.182108 -20.375895 49.933327 -16.701811 -16.74353 28.476532 -4e-06 -12.690601 3e-06 15.583029 -16.99474 2.478773 -0.105919 -1.513856 -4.275883 -5.039041 -5.612871 -2.953557 3e-06 -11.020525 0.0 -6.111298 -15.895334 -3.840472 1e-06 1e-06 -0.0 -10.283371 -5.680288 -4.341837 11.028296 -11.302405 -2.372635 -1.38427 -14.238579 -6.320121 -0.625437 -26.924191 -3.8276 -4.237135 -48.782372 -3.165052 -13.708524 -7.363476 -3.720939 18.141148 -14.052739 -3.242673 6e-06 -18.78727 -2e-06 -0.429711 -8.456043 2.555504 1e-06 -1e-06 -2e-06 -15.923536 -20.094482 -5.473585 30.419218 -7.190824 1.735928 4e-06 -8.162927 -3e-06 -1.861903 -22.861467 -6.167942 1e-06 -4e-06 -1e-06 124.499939 2.730633 -5.383639 45.493221 0.13873 -0.144769 -78.168007 -10.783287 -0.499281 -5.546576 1.466155 2.065576 -0.999998 -0.0 0.0 -46.768955 -19.641144 -9.462313 72.025948 -0.121352 0.303598 -82.231361 -2.758578 -1.808593 -9.363297 0.85106 1.73812 -1.0 0.0 1e-06 
0.0 0.0 0.0 0.0 -0.0 0.0 -26.863462 91.793633 -190.410126 91.834373 -17.038805 92.090416 20.269587 0.03664 -0.106452 0.323246 -0.094912 0.628117 38.430668 -0.208316 -2.166065 -12.071211 -4.199763 1.417326 -2.890327 -0.27599 -2.89637 -53.09473 0.687741 -6.31944 5e-06 -0.0 0.0 0.094812 0.057238 -0.052108 0.258831 -0.038473 -0.055277 0.163731 0.152117 -0.041215 94.336617 -76.445709 -86.509712 40.493484 -17.377914 -15.784494 29.216866 -0.633154 0.509996 8.021644 2.54786 -9.228695 17.636633 -26.322733 52.411198 -19.466661 -14.395596 29.410389 -0.0 -8.774822 0.0 16.882027 -18.660728 5.889204 -0.609776 -1.795654 -3.889327 -4.80709 -11.046811 -2.93785 4e-06 -20.976017 -2e-06 -5.019972 -25.03356 -4.03188 7e-06 0.0 1e-06 -10.634535 -5.686971 -3.565587 10.573274 -17.922953 -3.113901 4e-06 -13.82121 -1e-06 -0.501778 -31.181505 -4.027016 -11.663095 -61.430149 8.102263 -13.982714 -7.150198 -2.875042 13.77273 -8.401493 -3.218241 0.347731 -34.211555 0.771656 -0.963031 -17.733372 2.62102 1e-06 -0.0 -1e-06 -17.346422 -20.095217 -4.201784 21.757557 -1.638375 3.866427 0.0 -6.338824 1e-06 -1.69759 -22.591745 -6.194006 3e-06 -4e-06 -1e-06 -91.867455 -71.179588 -78.800941 40.738342 -15.29527 -23.860954 26.780787 -2.234941 -0.014451 5.15389 -1.808729 1.317902 22.182125 -20.375891 49.933311 -16.701818 -16.743528 28.47653 -4e-06 -12.690601 -3e-06 15.37606 -16.888147 2.44589 -0.105919 -1.513856 -4.275881 -5.039042 -5.612872 -2.953557 5e-06 -11.020527 -2e-06 -6.111299 -15.895334 -3.84047 -0.0 -1e-06 -1e-06 -10.283372 -5.680288 -4.341838 11.028297 -11.302407 -2.372634 -1.384266 -14.238583 -6.320125 -0.625436 -26.924187 -3.827598 -4.507172 -47.905491 -3.296218 -13.708528 -7.363475 -3.720939 18.141153 -14.052745 -3.242672 9e-06 -18.78727 -2e-06 -0.429709 -8.45605 2.555502 0.0 1e-06 1e-06 -15.923536 -20.094484 -5.473584 30.419222 -7.19083 1.735927 3e-06 -8.162927 -1e-06 -1.861901 -22.861469 -6.167942 -0.0 -5e-06 -2e-06 125.605881 1.910182 -5.524828 43.557121 0.169171 -0.129467 -75.497421 -10.053935 -1.231017 -5.598577 1.424726 2.058677 -0.999999 1e-06 0.0 -41.517406 -19.495924 -9.012013 70.695549 -0.292227 0.524276 -82.82383 1.022493 -4.173339 -10.633531 0.877643 1.730712 -1.000001 0.0 -0.0 
